<svg width="445.401" height="458.213" xmlns="http://www.w3.org/2000/svg"><g transform="translate(-47.897 -50.655)"><ellipse style="fill:none;stroke:none" transform="matrix(1 0 0 -1 -450.222 83.178)" cx="250.119" cy="109.457" rx="141.98" ry="66.128"/><ellipse style="fill:none;stroke:none" transform="matrix(1 0 0 -1 400.937 96.526)" cx="250.119" cy="109.457" rx="141.98" ry="66.128"/><path style="fill:#000;fill-opacity:1;stroke:#0896f7;stroke-width:2.5;stroke-miterlimit:4;stroke-dasharray:none;stroke-opacity:1" transform="rotate(44.842) skewX(.055)" d="M237.184-144.34H549.81v312.572H237.184z"/><path transform="matrix(.71121 .70297 -.70606 .70815 0 0)" style="fill:#000;fill-opacity:1;stroke:#0896f7;stroke-width:3.21802;stroke-miterlimit:4;stroke-dasharray:none;stroke-opacity:1" d="M244.277-135.999h298.162v298.171H244.277z"/><g style="fill:#0896f7;fill-opacity:1;stroke:none"><path d="M597.756 166.336 476.787 344.92l-.371 5.56 5.198-2.475 127.23-175.023zM476.532 350.073l108.136-153.838m-3.976-5.011-2.486-7.257 7.913-.513z" style="fill:#0896f7;fill-opacity:1;stroke:none" transform="matrix(.88552 .13254 -.1311 .87584 -106.086 79.573)"/><path d="m590.756 197.75 8.177-.782-2.647-6.925zm-8.952-5.304-1.386-3.983 3.422-4.443 3.716.191z" style="fill:#0896f7;fill-opacity:1;stroke:none" transform="matrix(.88552 .13254 -.1311 .87584 -106.086 79.573)"/><path d="m595.368 188.764 1.12 3.792-3.897 4.599-3.014-.15zm49.439-79.432-5.422-.318-2.94 4.04-5.048 11.462L598.61 166.7l9.962 6.737 28.014-47.024 8.684-7.79 2.59-4.938z" style="fill:#0896f7;fill-opacity:1;stroke:none" transform="matrix(.88552 .13254 -.1311 .87584 -106.086 79.573)"/><path d="m598.036 167.64 33.373-43.204 4.785 2.456-28.426 46.716z" style="fill:#0896f7;fill-opacity:1;stroke:none" transform="matrix(.88552 .13254 -.1311 .87584 -106.086 79.573)"/><path d="m574.777 149.022 1.752 3.259 54.211 34.004 3.344.802.53 5.578-5.024.587-1.83-3.647-.167-.138-52.285-33.743-.263-.19-4.09-.036-1.662-5.592z" style="fill:#0896f7;fill-opacity:1;stroke:none" transform="matrix(.88552 .13254 -.1311 .87584 -106.086 79.573)"/></g><g transform="matrix(.88289 -.14909 .14746 .87324 -360.195 244.297)" style="fill:#0896f7;fill-opacity:1;stroke:none"><path d="m527.523 172.759 9.385-5.58 106.645 166.616.076 4.186-4.1-2.166zm-4.359 2.308-.947 1.563s.095 1.256.18 1.778c.086.523.107.932.309 1.358.202.425.45.778.881 1.137.43.359 1.11.692 1.707.893.596.2 1.229.275 1.818.31.589.035 1.031-.025 1.692-.086.66-.06 1.73-.116 2.266-.305.536-.19.686-.456.961-.585.275-.13.657-.228.657-.228s.71.736.553 1.251c-.157.515-.877.717-1.594 1.056-.717.339-1.765.73-2.722.84-.956.11-1.89-.009-2.912-.202s-2.37-.62-3.164-.993-1.162-.543-1.639-1.063c-.476-.52-.838-1.348-1.055-2.018-.218-.67-.364-1.363-.282-1.931.083-.57.627-1.368.627-1.368zm-13.932-39.403 4.758.162 3.688 3.86.5 4.072 1.006 1.329 13.117 20.274-5.678 3.132-11.19-17.219-2.386-3.805-4.252-2.926-1.4-4.78z" style="fill:#0896f7;fill-opacity:1;stroke:none"/><rect ry="0" transform="matrix(.8887 -.45849 .54171 .84056 0 0)" y="368.357" x="353.338" height="24.567" width="6.054" style="fill:#0896f7;fill-opacity:1;stroke:none"/><path d="M519.027 189.599c-.655.178-1.833.27-2.703.185-.871-.084-1.724-.306-2.449-.656-.725-.35-1.84-1.369-1.84-1.369l-.939-1.703-.312-3.071.721-2.112 1.715-2.374 2.11-1.841 2.775-1.989 6.881-4.272 16.907-10.242 2.773-1.172 1.635-.652 2.915-.614 3.309-.082 3.307.734 1.637 1.88s.647 1.169.887 2.034c.24.865.563 4.425.404 3.144-.158-1.282-.245 1.493-.248 1.739-.004.245-.678.64-1.13.601-.452-.038-1.003-.434-1.11-.87-.106-.436.46-.553.56-1.198.099-.645 0-1.685-.347-2.578-.347-.893-1.795-2.598-1.795-2.598l-2.12-.77-5.601.961-2.547 1.722-26.417 15.427-2.303 1.615-1.732 2.212-.93 1.725.7 2.706s.967.798 1.723 1.054c.756.257 2.135.324 2.753.3.617-.024.566-.266.918-.173.352.094.753.501.932.806.18.305.343.549.175.881-.168.332-.56.431-1.214.61zm19.33-10.368 104.93 158.416" style="fill:#0896f7;fill-opacity:1;stroke:none"/><path d="m541.682 164.139 1.878-.059s1.102.678 1.538 1c.437.32.8.533 1.093.906.293.373.497.752.62 1.288.123.535.103 1.27.003 1.87-.1.6-.333 1.172-.582 1.687-.248.516-.513.863-.883 1.393-.37.531-.93 1.41-1.357 1.774-.428.364-.743.365-.992.536-.249.171-.52.448-.52.448s.334.952.88 1.064c.545.112 1.07-.402 1.722-.848.65-.446 1.506-1.148 2.062-1.906.556-.757.891-1.606 1.202-2.563.31-.957.56-2.302.597-3.152.037-.85.058-1.243-.19-1.894-.248-.651-.833-1.352-1.34-1.854-.509-.503-1.072-.957-1.63-1.158-.56-.2-1.548-.12-1.548-.12z" style="fill:#0896f7;fill-opacity:1;stroke:none"/><path transform="matrix(.85678 -.51568 .48495 .87454 0 0)" style="fill:#0896f7;fill-opacity:1;stroke:none" d="M375.993 428.76h16.678v2.931h-16.678z"/><path transform="matrix(.8513 -.5247 .47648 .87919 0 0)" style="fill:#0896f7;fill-opacity:1;stroke:none" d="M377.85 421.241h19.819v3.234H377.85z"/></g><g style="fill:#000;fill-opacity:1"><g style="fill:#000;fill-opacity:1;stroke:#0896f7;stroke-width:2.13442;stroke-miterlimit:4;stroke-dasharray:none;stroke-opacity:1"><path d="m108.152 32.402 6.663 12.77s5.65 7.517 8.908 10.89c3.585 3.711 7.592 7.005 11.636 10.21 3.744 2.967 7.666 5.71 11.66 8.33 3.61 2.366 11.106 6.662 11.106 6.662l8.375 4.465-22.835.147s8.504 3.65 12.794 5.383c5.705 2.303 11.371 4.732 17.213 6.663 5.286 1.747 10.651 3.305 16.102 4.442 6.406 1.335 12.954 1.863 19.434 2.776 6.66.938 13.306 2.002 19.989 2.776 7.94.92 15.884 2.06 23.875 2.221 7.042.142 14.077-.583 21.1-1.11 7.603-.571 15.206-1.224 22.765-2.221 5.58-.737 11.13-1.713 16.657-2.777 6.326-1.217 12.675-2.394 18.879-4.126 5.275-1.473 10.358-3.561 15.547-5.313 4.436-1.497 9.129-2.366 13.326-4.442 2.451-1.212 6.786-4.611 6.786-4.611l-22.333-.386s5.25-2.464 7.773-3.887c3.623-2.043 7.061-4.399 10.55-6.663 2.24-1.453 4.424-2.988 6.663-4.442 2.627-1.705 5.507-3.052 7.943-5.02 2.611-2.11 4.788-4.713 7.049-7.195 2.122-2.33 3.973-4.9 6.108-7.219 1.595-1.733 4.997-4.997 4.997-4.997l8.884-15.547-6.663 18.323-9.995 33.315 9.44 6.108s-3.217 5.26-4.998 7.774a112.677 112.677 0 0 1-6.084 7.82c-1.947 2.291-3.964 4.532-6.131 6.616-2.46 2.366-5.005 4.668-7.774 6.663-1.75 1.262-5.552 3.332-5.552 3.332s1.166 3.436.555 4.997c-1.339 3.42-5.261 5.196-8.329 7.218-5.667 3.736-12.024 6.355-18.323 8.884-5.595 2.246-11.374 4.052-17.213 5.553-5.66 1.454-11.437 2.438-17.212 3.331-7.918 1.225-15.891 2.113-23.876 2.776a326.792 326.792 0 0 1-22.21 1.11c-9.07.135-18.156.05-27.207-.555-8.178-.546-16.326-1.557-24.431-2.776-8.939-1.344-17.865-2.878-26.652-4.997-4.577-1.103-9.15-2.317-13.542-4.01-5.099-1.964-10.222-4.076-14.776-7.095-3.497-2.318-9.44-8.329-9.44-8.329l-2.22-1.665v-2.853s-3.455-2.778-5.044-4.319c-4.325-4.197-8.084-8.94-12.169-13.373-2.573-2.792-5.488-5.295-7.773-8.328-1.948-2.586-4.998-8.33-4.998-8.33l9.995-6.107zm58.29 52.998.193 9.874m179.747-10.453v10.8" style="fill:#000;fill-opacity:1;stroke:#0896f7;stroke-width:2.13442;stroke-linecap:butt;stroke-linejoin:miter;stroke-miterlimit:4;stroke-dasharray:none;stroke-opacity:1" transform="matrix(.91387 0 0 .84983 37.116 25.456)"/></g><path style="fill:#000;fill-opacity:1;stroke:#0896f7;stroke-width:1.4;stroke-linecap:butt;stroke-linejoin:miter;stroke-miterlimit:4;stroke-dasharray:none;stroke-opacity:1" d="M152.011 115.507c-.729 33.172-1.093 33.172-1.093 33.172m206.692-33.901c-.73 33.172-1.095 33.172-1.095 33.172" transform="translate(16.915 -16.897)"/></g><g style="font-style:normal;font-variant:normal;font-weight:400;font-stretch:normal;font-size:13px;line-height:125%;font-family:'Britannic Bold';-inkscape-font-specification:'Britannic Bold';letter-spacing:0;word-spacing:0;fill:#0896f7;fill-opacity:1;stroke:none"><path style="font-weight:400;font-size:24px;-inkscape-font-specification:'Britannic Bold,';fill:#0896f7;fill-opacity:1" d="m179.611-41.008-.495 1.527-5.518-1.79-1.645 5.073 4.682 1.518-.495 1.527-4.682-1.518-2.3 7.09-4.414-1.432 4.935-15.216zm2.883.302c1.28.352 1.784 1.025 1.511 2.02-.273.994-1.05 1.315-2.33.964-1.281-.352-1.785-1.025-1.512-2.02.273-.994 1.05-1.315 2.33-.964zm-6.432 15.235 3.125-11.379c1.288.354 2.69.63 4.208.828l-3.208 11.684zm14.348-8.84c3.809.87 5.253 3.316 4.334 7.338-.92 4.02-3.283 5.596-7.091 4.726-3.816-.872-5.264-3.32-4.345-7.34.92-4.022 3.287-5.596 7.103-4.724zm-.243 1.014c-.922-.21-1.765 1.356-2.529 4.7-.764 3.343-.686 5.12.236 5.33.93.213 1.776-1.353 2.54-4.696.764-3.344.682-5.121-.247-5.334zm14.728 6.512-2.884-.518c.182-.436.33-.754.446-.956.164-.296.269-.57.314-.824.089-.493-.044-.77-.398-.834-.269-.048-.585.23-.947.836a5.856 5.856 0 0 0-.74 1.993l-1.25 6.966-4.21-.756 2.087-11.626.817.158c.97.174 2.118.273 3.447.298l-.343 1.914c.913-1.153 1.866-1.64 2.858-1.463 1.353.243 1.896 1.11 1.628 2.602-.07.393-.217.83-.438 1.315-.084.2-.213.497-.387.895zm19.856-6.302-1.757 16.147-4.252-.463.11-1.013c-.808.776-1.81 1.1-3.005.97-2.641-.288-3.74-2.459-3.3-6.513.454-4.17 2.08-6.104 4.875-5.8 1.103.12 1.928.701 2.475 1.743l.575-5.289c1.282.14 2.708.212 4.279.218zm-6.14 5.19c-.715-.077-1.144.54-1.287 1.853l-.352 2.484-.201 2.277c-.158 1.452.167 2.222.974 2.31.785.086 1.255-.586 1.41-2.015l.37-2.86.12-1.967c.017-1.31-.328-2.004-1.035-2.081zm15.447 7.387 1.686.616c-.358 2.708-2.054 3.963-5.086 3.764-3.93-.258-5.765-2.347-5.507-6.269.124-1.902.75-3.427 1.874-4.574 1.124-1.148 2.501-1.668 4.13-1.561 3.407.224 4.966 2.534 4.677 6.93l-6.22-.408c-.203 3.087.479 4.682 2.046 4.785 1.465.096 2.255-.729 2.37-2.475.016-.234.025-.503.03-.808zm-4.372-2.824 2.55.167c.18-2.744-.143-4.143-.97-4.197-.748-.05-1.236.94-1.463 2.97zm12.427-8.782-.563 16.22-4.275-.148.555-15.986c1.179.04 2.606.012 4.283-.086zm6.259.104-.214 16.229-4.277-.056.21-15.995c1.18.015 2.607-.044 4.28-.178zm14.063 15.634c-1.04.425-2.055.647-3.047.665-1.468.026-2.383-.415-2.743-1.322-.694.965-1.708 1.46-3.044 1.485-2.492.044-3.758-1.09-3.8-3.401-.032-1.758 1.086-3.013 3.354-3.765 2.082-.693 3.114-1.501 3.098-2.423-.022-1.21-.634-1.805-1.837-1.783-1.39.025-2.075.623-2.054 1.795.007.367.125.85.354 1.447l-2.128-.372a7.027 7.027 0 0 1-.1-1.03c-.034-1.875 1.66-2.843 5.08-2.904 3.25-.059 4.89.787 4.922 2.536l.13 7.171c.013.734.258 1.097.734 1.089.148-.003.366-.09.652-.258zm-6.178-6.57c-.26.31-.564.57-.912.78-.873.53-1.299 1.406-1.277 2.624.028 1.562.347 2.338.956 2.327.89-.016 1.322-.797 1.294-2.344zm23.816-5.841-2.114.58c.056-.436.073-.798.048-1.086-.158-1.853-1.362-2.683-3.611-2.491-1.775.151-2.608.865-2.5 2.142.082.957 1.145 1.694 3.188 2.21 3.942.989 6.023 2.771 6.243 5.348.128 1.51-.305 2.768-1.302 3.775-.996 1.006-2.385 1.585-4.168 1.737-3.946.336-6.05-1.025-6.311-4.084a9.021 9.021 0 0 1-.02-.928l2.188-.68c-.113.692-.149 1.287-.106 1.785.168 1.977 1.385 2.87 3.65 2.676 1.814-.155 2.66-.944 2.539-2.369-.09-1.058-1.256-1.896-3.496-2.513-3.235-.884-4.96-2.592-5.176-5.121-.122-1.433.303-2.631 1.275-3.596.972-.965 2.31-1.52 4.016-1.666 3.502-.299 5.388 1.128 5.657 4.281zm3.973 15.179-2.065-15.662c1.2-.158 2.6-.445 4.2-.861l.233 1.766c.642-1.29 1.532-2.01 2.67-2.16 1.216-.161 2.262.266 3.136 1.282.875 1.015 1.436 2.456 1.682 4.323.544 4.128-.559 6.374-3.308 6.736-1.131.15-2.117-.154-2.957-.91l.65 4.926zm3.718-15.006c-.937.123-1.213 1.641-.83 4.554.4 3.028 1.05 4.483 1.948 4.365.805-.107 1.008-1.674.609-4.702-.384-2.913-.96-4.318-1.727-4.217zm20.36 6.739c-.958.587-1.925.968-2.9 1.145-1.446.262-2.42-.026-2.92-.864-.53 1.065-1.452 1.716-2.767 1.955-2.452.444-3.884-.471-4.297-2.747-.313-1.73.589-3.147 2.707-4.254 1.943-1.019 2.832-1.982 2.668-2.89-.216-1.19-.916-1.68-2.1-1.465-1.368.248-1.948.949-1.739 2.102.066.361.26.819.582 1.371l-2.16-.025a7.022 7.022 0 0 1-.265-1c-.334-1.845 1.182-3.072 4.549-3.683 3.198-.58 4.953-.008 5.265 1.713l1.28 7.057c.13.723.43 1.042.9.957.145-.027.346-.147.601-.36zm-7.153-5.492a3.626 3.626 0 0 1-.775.915c-.777.665-1.056 1.597-.839 2.796.279 1.537.718 2.252 1.317 2.143.877-.159 1.177-1 .901-2.521zm14.576-12.523 3.728 15.808-4.163.982-.234-.992c-.502 1.001-1.339 1.64-2.51 1.916-2.585.61-4.346-1.07-5.282-5.04-.963-4.083-.075-6.447 2.662-7.093 1.08-.254 2.051.018 2.914.818l-1.221-5.178a41.238 41.238 0 0 0 4.106-1.221zm-4.058 6.94c-.7.166-.898.89-.595 2.176l.496 2.46.57 2.213c.336 1.422.899 2.04 1.69 1.853.767-.181.986-.971.657-2.37l-.605-2.82-.543-1.894c-.421-1.241-.978-1.78-1.67-1.617zm21.355 4.462c-.887.688-1.806 1.174-2.757 1.457-1.407.42-2.406.24-2.997-.537-.409 1.116-1.253 1.866-2.534 2.247-2.388.712-3.912-.04-4.573-2.256-.503-1.684.238-3.193 2.22-4.526 1.82-1.227 2.598-2.283 2.334-3.166-.346-1.16-1.095-1.569-2.248-1.225-1.333.397-1.832 1.158-1.497 2.28.105.352.348.785.73 1.3l-2.15.212a7.022 7.022 0 0 1-.373-.965c-.536-1.796.835-3.184 4.115-4.161 3.114-.929 4.921-.555 5.422 1.122l2.049 6.873c.21.704.543.988 1 .851.142-.042.328-.183.558-.423zm-7.714-4.67a3.66 3.66 0 0 1-.67.994c-.699.746-.874 1.703-.526 2.871.447 1.497.962 2.159 1.546 1.985.854-.255 1.06-1.123.617-2.605z" transform="translate(21.855 161.451)"/></g><g style="stroke:#0896f7;stroke-width:8.73908;stroke-miterlimit:4;stroke-dasharray:none;stroke-opacity:1"><path style="fill:none;stroke:#0896f7;stroke-width:8.73908;stroke-linecap:butt;stroke-linejoin:miter;stroke-miterlimit:4;stroke-dasharray:none;stroke-opacity:1" d="M345.101 713.042s-3.725-.658-5.202-1.735c-5.793-4.222-9.974-10.719-12.718-17.341-1.94-4.683-1.925-9.976-2.312-15.03-.338-4.419-1.063-8.993 0-13.295.993-4.017 7.919-7.442 5.78-10.983-.896-1.485-3.52-.42-5.202 0-3.178.794-5.582 3.535-8.67 4.624-3.885 1.37-10.984 6.266-12.14 2.312-.291-.996 2.112-.47 2.89-1.156 4.466-3.933 6.05-10.264 8.671-15.607 2.585-5.27 4.74-10.743 6.937-16.186 2.237-5.542 5.016-10.94 6.359-16.764.956-4.147 1.198-8.46 1.156-12.717-.035-3.49 2.333-10.381-1.156-10.405-6.214-.043-.826 12.464-2.313 18.498-.787 3.197-1.928 6.339-3.468 9.249-1.875 3.544-4.577 6.585-6.937 9.827-2.267 3.116-4.197 6.538-6.936 9.249-2.548 2.52-6.411 3.577-8.671 6.358-1.469 1.807-.57 6.171-2.89 6.359-1.386.112-2.028-2.108-2.313-3.468-.682-3.256 1.192-6.546 1.734-9.827.413-2.5 3.571-6.746 1.156-7.515-2.463-.784-1.895 4.885-3.468 6.937-1.411 1.841-3.229 3.404-5.202 4.624-2.648 1.637-5.855 2.143-8.671 3.468-2.185 1.029-4.22 2.35-6.359 3.469-1.527.798-3.178 3.25-4.624 2.312-3.722-2.414-.162-8.921.578-13.295.335-1.984.57-4.14 1.734-5.78 3.031-4.277 8.238-6.527 12.717-9.25 2.577-1.567 5.455-2.584 8.093-4.046 3.555-1.97 7.055-4.057 10.405-6.359 2.605-1.79 5.457-3.382 7.515-5.78 2.863-3.339 4.23-7.712 6.358-11.562.96-1.736 2.333-3.298 2.89-5.202.868-2.965 2.55-6.87.579-9.25-.992-1.195-3.094-.84-4.625-.577-2.548.436-5.345 1.43-6.936 3.468-1.094 1.4-.713 3.482-1.157 5.203-.852 3.306-.79 7.135-2.89 9.827-2.338 2.996-7.382 2.87-9.827 5.78-1.06 1.26-.633 3.401-1.734 4.625-.865.96-2.25 2.165-3.468 1.734-2.195-.777-.59-6.004-2.89-6.359-2.563-.395-3.257 4.068-5.203 5.78-2.287 2.014-4.607 4.295-7.515 5.203-1.84.575-4.831 1.677-5.78 0-1.108-1.955 2.437-3.783 3.468-5.78 1.543-2.99 3.507-5.928 4.046-9.25.341-2.1 1.328-5.412-.578-6.358-3.256-1.616-6.355 3.58-9.249 5.78-2.496 1.9-4.896 3.977-6.936 6.36-3.165 3.692-6.506 7.542-8.093 12.139-.82 2.374-.556 5.002-.578 7.514-.03 3.282 3.275 7.96.578 9.827-1.56 1.08-3.795-1.04-5.203-2.312-2.305-2.083-3.642-5.145-4.624-8.093-.492-1.473.96-4.415-.578-4.624-2.482-.338-2.125 4.552-2.89 6.937-.787 2.447-1.444 4.96-1.735 7.514-.436 3.83 3.278 9.536 0 11.562-1.466.906-3.118-1.475-4.624-2.313-2.57-1.43-5.487-2.494-7.515-4.624-3.033-3.185-5.531-7.242-6.359-11.561-.584-3.052 3.603-7.335 1.156-9.25-2.113-1.653-5.6 4.771-7.514 2.891-1.61-1.58 1.276-4.355 2.312-6.359 1.399-2.706 3.182-5.234 5.202-7.514 1.539-1.737 3.282-3.324 5.203-4.625 2.854-1.932 10.261-1.33 9.249-4.624-.857-2.788-5.762.963-8.671 1.156-4.614.306-9.373-1.063-13.873 0-2.936.693-6.051 1.827-8.093 4.046-1.405 1.527-1.999 3.73-2.312 5.78-.38 2.484-.396 5.2.578 7.516.793 1.888 4.364 2.6 4.046 4.624-.174 1.11-1.794 1.489-2.89 1.734-1.89.423-3.964.09-5.78-.578-2.86-1.052-5.04-6.977-7.516-5.202-1.14.817.477 2.819 1.156 4.046 1.256 2.268 3.14 4.21 5.203 5.78 1.714 1.306 3.766 2.128 5.78 2.89 2.798 1.06 5.752 1.66 8.671 2.313 2.103.47 5.458-.8 6.36 1.156 1.118 2.432-2.196 5.004-4.047 6.937-2.218 2.316-5.042 4.214-8.093 5.202-3.305 1.071-6.982 1.171-10.405.579-3.914-.678-7.51-2.698-10.983-4.625-3.506-1.945-7.01-4.084-9.827-6.937a31.98 31.98 0 0 1-6.359-9.249c-1.306-2.897-2.468-6.074-2.312-9.249.14-2.86 1.894-5.407 2.89-8.092.933-2.517 1.428-5.265 2.89-7.515 2.673-4.113 6.362-7.628 10.405-10.405 3.13-2.149 6.67-3.95 10.406-4.625 9.308-1.68 18.87 2.033 28.324 1.735 6.211-.197 12.324-1.61 18.498-2.313 7.506-.854 15.313-.128 22.545-2.312 7.92-2.392 15.028-7.052 21.966-11.561 3.91-2.542 7.497-5.571 10.983-8.671 2.647-2.354 6.063-4.283 7.515-7.515 1.344-2.993.481-6.547.578-9.827.068-2.311-.745-4.747 0-6.936 1.017-2.992 7.277-4.732 5.78-7.515-2.56-4.765-10.777 1.08-16.185 1.156-4.436.062-8.945.286-13.296-.578-2.212-.44-4.484-1.058-6.358-2.312-4.988-3.338-9.764-7.785-12.14-13.296-2.064-4.79-2.973-10.717-1.156-15.607 2.088-5.62 7.813-9.27 12.718-12.718 2.962-2.081 6.217-4.346 9.827-4.624 3.404-.262 7.138 4.995 9.827 2.89 3.493-2.734-.117-8.883-.578-13.295-.489-4.663-1.291-9.298-2.313-13.874-1.395-6.25-3.093-12.45-5.202-18.497-2.134-6.116-4.562-12.156-7.515-17.92-3.194-6.236-6.646-12.418-10.983-17.92-3.88-4.922-8.281-9.535-13.295-13.295-5.45-4.088-11.419-7.793-17.92-9.827-7.027-2.2-14.615-2.714-21.966-2.313-4.529.248-9.144 1.065-13.296 2.89-3.67 1.615-7.214 3.896-9.827 6.937-2.246 2.614-3.832 5.895-4.624 9.25-.841 3.562-1.024 7.467 0 10.982.702 2.412 2.474 4.4 4.046 6.359 2.046 2.55 4.625 4.624 6.937 6.937 2.697 2.697 5.075 5.758 8.093 8.093 3.005 2.325 6.487 3.966 9.827 5.78 3.028 1.646 6.452 2.61 9.249 4.625 3.537 2.549 6.113 6.22 9.249 9.249 2.843 2.747 6.304 4.925 8.67 8.092 1.806 2.416 2.83 5.334 4.047 8.093 1.083 2.456 2.458 4.866 2.89 7.515.715 4.378.02 8.9-.578 13.295-.346 2.548-.689 5.166-1.734 7.515-.957 2.149-2.56 3.959-4.047 5.78-3.188 3.908-6.378 7.948-10.405 10.984-4.335 3.268-12.104 2.618-14.451 7.515-.425.886.735 1.92.578 2.89-.249 1.533-1.02 3.185-2.312 4.046-1.293.862-3.113.935-4.625.578-1.352-.319-2.212-2.906-3.468-2.312-1.75.828-1.001 3.891-.578 5.78.245 1.097 1.265 1.87 1.734 2.89.764 1.662 2.073 3.407 1.734 5.203-.279 1.48-2.263 2.1-2.89 3.469-.977 2.13-1.25 4.594-1.156 6.937.095 2.381.5 4.898 1.734 6.936 1.202 1.985 3.419 3.14 5.203 4.625 1.689 1.405 5.915 1.968 5.202 4.046-1.75 5.103-10.913 1.142-16.186 0-2.275-.493-4.595-1.37-6.358-2.89-2.955-2.548-4.008-6.713-6.359-9.827-1.234-1.635-2.015-4.885-4.046-4.625-1.282.165-1.508 2.196-1.734 3.469-.307 1.717 2.068 4.295.578 5.202-1.78 1.084-3.89-1.85-5.203-3.468-1.308-1.612-1.92-3.743-2.312-5.78-.474-2.46-.401-5.043 0-7.515.488-3.008 1.09-6.213 2.89-8.671 1.548-2.115 7.17-2.132 6.359-4.625-.596-1.832-3.914-.476-5.78 0-2.34.597-4.52 1.905-6.36 3.469-1.673 1.422-2.461 3.68-4.046 5.202-1.196 1.148-3.288 1.417-4.046 2.89-.794 1.542-.278 3.491 0 5.203.39 2.406 1.922 4.53 2.312 6.937.123.76.545 1.767 0 2.312-.273.272-.8.147-1.156 0-2.266-.939-3.331-3.617-5.203-5.203-1.264-1.071-2.54-3.58-4.046-2.89-1.935.887-.174 4.27-.578 6.359-.382 1.975-.703 4.053-1.734 5.78-1.398 2.34-3.674 4.053-5.781 5.78-2.15 1.763-4.502 3.285-6.937 4.625-1.662.915-3.577 3.293-5.202 2.313-2.48-1.497-.155-5.806-.578-8.671-.376-2.544-1.81-4.945-1.734-7.515.1-3.413.826-7.107 2.89-9.827 1.099-1.448 3.401-1.545 4.624-2.89.87-.957 2.328-2.32 1.734-3.469-1.164-2.251-5.078-.458-7.514-1.156-1.411-.404-2.832-.911-4.047-1.734-2.482-1.68-7.505-3.59-6.358-6.359.663-1.602 3.47.067 5.202 0 2.51-.096 5.14.242 7.515-.578 3.94-1.36 7.002-4.529 10.405-6.936 2.36-1.67 4.85-3.203 6.937-5.203 1.977-1.895 2.89-4.892 5.202-6.359 2.013-1.276 4.56-1.56 6.937-1.734 1.931-.14 3.85.719 5.78.578.793-.057 2.126.194 2.313-.578.48-1.99-3.093-2.687-4.625-4.046-1.939-1.72-4.548-2.922-5.78-5.203-1.205-2.23-.963-4.988-1.156-7.515-.103-1.344-1.07-3.224 0-4.046 2.372-1.822 5.805 1.454 8.67 2.312 1.752.525 4.302 3.325 5.203 1.734.875-1.545-2.915-2.099-4.046-3.468-.99-1.197-2.234-2.495-2.313-4.046-.095-1.896 1.31-3.591 2.313-5.203.795-1.278 1.615-2.668 2.89-3.468 2.019-1.267 4.571-1.443 6.937-1.734.956-.118 2.562-.906 2.89 0 .512 1.415-2.584 1.672-3.468 2.89-1.22 1.679-2.28 3.705-2.313 5.78-.035 2.256 1.175 4.412 2.313 6.36.896 1.533 2.179 2.823 3.468 4.046 2.293 2.174 4.998 3.869 7.515 5.78 1.534 1.166 3.3 2.069 4.624 3.469.955 1.009.923 3.501 2.312 3.468 1.124-.027.932-2.104 1.735-2.89 1.11-1.087 2.497-2.433 4.046-2.313 1.23.096 2.01 1.449 2.89 2.313 1.075 1.053 1.48 2.944 2.89 3.468 1.1.408 2.467.03 3.469-.578 2.47-1.502 4.12-4.257 5.202-6.937 1.165-2.88 1.78-6.205 1.157-9.249-.537-2.622-2.252-4.95-4.047-6.936-1.757-1.945-4.146-3.22-6.358-4.625-3.713-2.358-7.667-4.315-11.562-6.359-4.578-2.402-9.143-4.85-13.873-6.936-4.911-2.166-10.119-3.615-15.03-5.78-7.49-3.305-14.67-7.27-21.966-10.984-5.222-2.66-10.844-4.68-15.607-8.093-5.429-3.889-10.327-8.622-14.452-13.873-4.267-5.432-6.894-11.972-10.405-17.92-2.284-3.87-5.12-7.45-6.937-11.561-2.438-5.52-4.575-11.34-5.202-17.342-.483-4.615.581-9.269 1.156-13.873.58-4.653 1.049-9.359 2.312-13.874.839-2.998 1.92-5.97 3.468-8.67 3.28-5.718 7.286-11.15 12.14-15.608 3.384-3.11 7.828-4.833 11.56-7.515 4.791-3.442 8.582-8.379 13.874-10.983 5.703-2.806 12.235-3.542 18.498-4.625 7.822-1.351 15.765-2.476 23.7-2.312 8.365.173 16.712 1.56 24.857 3.468 5.933 1.39 11.843 3.155 17.342 5.781 5.16 2.465 9.855 5.845 14.451 9.249 5.493 4.067 10.657 8.584 15.608 13.295a121.882 121.882 0 0 1 9.249 9.827c2.48 2.95 4.647 6.15 6.937 9.25 3.114 4.216 6.62 8.181 9.249 12.717 3.07 5.298 5.17 11.106 7.514 16.763 1.657 4 3.148 8.069 4.625 12.14 2.016 5.556 4.211 11.065 5.78 16.763 1.255 4.554 1.994 9.236 2.89 13.874 1.041 5.38 2.337 10.733 2.891 16.185.76 7.48.214 15.036.578 22.545.262 5.402.963 10.78 1.156 16.185.096 2.696-2.153 6.469 0 8.093 2.24 1.69 6.624.078 8.093-2.312 2.672-4.346-2.406-9.951-2.89-15.03-.366-3.836.113-7.709 0-11.56-.097-3.28-.3-6.558-.578-9.828-.59-6.954-1.146-13.929-2.313-20.81-1.586-9.355-4.232-18.5-6.358-27.747-1.153-5.01-2.01-10.1-3.469-15.03-1.28-4.325-3.283-8.41-4.624-12.717-1.362-4.373-1.925-8.983-3.468-13.295-.93-2.597-2.428-4.96-3.469-7.515-2.39-5.87-3.877-12.087-6.358-17.92-1.687-3.964-1.942-9.606-5.781-11.56-1.044-.533-2.303.703-3.468.577-2.064-.223-3.998-1.25-5.781-2.312-1.293-.77-2.967-1.471-3.468-2.89-.654-1.853-.2-4.359 1.156-5.78.548-.576 1.93.118 2.312-.579.293-.534-.165-1.286-.578-1.734-2.98-3.24-8.198-3.24-12.14-5.203-4.171-2.077-7.712-5.479-12.138-6.936-3.133-1.032-6.53-1.081-9.827-1.156-2.704-.062-7.094 3.09-8.093.578-1.012-2.545 3.96-3.881 6.358-5.203 2.135-1.176 4.52-1.997 6.937-2.312 3.063-.4 6.29 1.463 9.249.578.923-.276 2.362-.772 2.312-1.734-.116-2.244-6.452-1.324-5.78-3.469.865-2.764 5.775.482 8.67.578 1.734.058 4.452 1.563 5.203 0 2.138-4.448-6.89-7.226-9.249-11.56-.582-1.071-.167-2.757-1.156-3.47-1.25-.9-3.088.128-4.624 0-1.169-.096-2.344-.248-3.469-.577-1.408-.413-3.327-.455-4.046-1.734-.668-1.188.481-2.688.578-4.047.068-.96.718-2.248 0-2.89-1.3-1.164-3.458.568-5.203.578-1.936.01-3.965.095-5.78-.578-2.206-.818-4.137-2.365-5.78-4.046-1.943-1.988-2.542-5.098-4.625-6.937-1.615-1.426-3.684-2.395-5.781-2.89-2.813-.665-5.783-.12-8.67 0-2.32.096-6.226 2.786-6.938.578-.689-2.14 3.811-2.387 5.781-3.469 3.777-2.073 7.33-4.966 11.561-5.78 2.279-.44 4.644.22 6.937.578 2.54.397 6.087 3.872 7.515 1.734.92-1.379-1.884-2.73-2.89-4.047-1.664-2.175-3.43-4.271-5.203-6.358-2.829-3.33-5.795-6.539-8.671-9.827-2.518-2.88-4.934-5.848-7.515-8.671a425.257 425.257 0 0 0-15.607-16.186c-2.819-2.772-4.844-7.103-8.671-8.093-1.539-.397-3.064 1.453-4.625 1.157-1.628-.31-3.146-1.499-4.046-2.89-1.067-1.65.363-4.535-1.156-5.781-.298-.245-.771-.02-1.156 0-1.934.096-3.876.928-5.781.578-2.542-.468-4.64-4.656-6.937-3.469-2.25 1.165.23 5.393-1.156 7.515-1.373 2.104-4.305 2.6-6.358 4.047-1.796 1.265-3.518 2.636-5.203 4.046-1.988 1.664-4.498 2.95-5.78 5.203-.973 1.707-1.044 3.818-1.157 5.78-.132 2.317.254 4.64.578 6.937.138.973 1.29 2.212.578 2.89-1.724 1.645-4.674-.985-6.936-1.734-2.378-.788-5.178-1.106-6.937-2.89-1.457-1.478-1.7-3.798-2.312-5.78-.525-1.698-1.05-3.43-1.156-5.203-.115-1.934-.318-4.064.578-5.781.822-1.575 4.558-1.767 4.046-3.468-.447-1.488-3.074-.482-4.624-.578-.962-.06-1.977.304-2.89 0-1.829-.61-3.359-2.017-4.625-3.469-1.304-1.495-3.98-3.545-2.89-5.202 1.064-1.618 3.846.481 5.78.578 1.54.077 3.2.59 4.625 0 2.014-.835 2.938-3.243 4.624-4.625 1.612-1.321 3.468-2.312 5.203-3.468 1.734-1.156 3.296-2.625 5.202-3.468 2.18-.965 4.615-1.196 6.937-1.735 2.687-.623 7.084.834 8.093-1.734.86-2.189-1.813-5.042-4.047-5.78-.578-.192-1.13.491-1.734.578-5.153.738-10.485.35-15.607-.578-2.998-.544-6.052-1.334-8.671-2.89-3.399-2.021-5.474-5.767-8.671-8.094-1.604-1.167-3.351-2.178-5.203-2.89-2.4-.922-4.96-1.443-7.515-1.734-1.148-.13-2.922 1.02-3.468 0-.656-1.225 1.27-2.549 2.312-3.468 1.615-1.426 3.806-2.03 5.781-2.89 3.018-1.317 5.962-3.282 9.249-3.469 2.38-.136 5.893 3.877 6.937 1.734.961-1.975-3.556-2.592-5.203-4.046a46.092 46.092 0 0 1-4.046-4.047c-1.454-1.647-3.06-3.24-4.047-5.202-1.617-3.216-3.048-6.809-2.89-10.405.072-1.645.355-3.725 1.734-4.625 2.91-1.898 7.048-.313 10.405.578 1.25.332 2.296 1.19 3.469 1.735 1.33.617 2.746 1.054 4.046 1.734 1.61.842 3.246 1.705 4.624 2.89 1.347 1.158 2.313 2.698 3.469 4.046 1.156 1.35 1.78 4.599 3.468 4.047 2.388-.78.08-5.052.578-7.515.241-1.194.56-2.406 1.156-3.468 1.608-2.86 3.488-5.927 6.359-7.515 1.192-.66 3.017-1.47 4.046-.578 1.602 1.389-.294 4.26 0 6.359.195 1.389.568 2.773 1.156 4.046.875 1.892 1.813 3.937 3.469 5.202.968.74 2.51.403 3.468 1.157 1.428 1.124 1.967 3.058 2.89 4.624 1.008 1.709 2.393 3.282 2.89 5.203.532 2.051 0 4.239 0 6.358 0 2.698-.167 5.4 0 8.093.097 1.55-.104 3.229.579 4.625.958 1.958 2.496 5.096 4.624 4.624 2.202-.488 1.57-4.229 2.313-6.359.601-1.726.93-3.56 1.734-5.202 1.526-3.12 2.962-6.64 5.78-8.671 1.783-1.285 4.523-.528 6.359-1.734 1.031-.678 2.146-1.668 2.312-2.89.198-1.455-1.542-2.592-1.734-4.047-.179-1.35-.714-3.615.578-4.046.259-.087.343.44.578.578 1.21.711 2.838.444 4.047 1.156 1.174.69 1.836 2.026 2.89 2.89.537.44 1.406.544 1.734 1.156.818 1.53 0 3.469 0 5.203 0 1.156-.817 2.65 0 3.468.273.273.8.148 1.156 0 1.762-.73 2.284-3.316 4.047-4.046 1.424-.59 3.083 0 4.624 0 2.12 0 4.271-.368 6.359 0 2.22.391 4.456 1.1 6.358 2.312 1.15.732 2.12 1.767 2.89 2.89 1.075 1.565 2.003 3.33 2.313 5.203.347 2.1 1.257 5.28-.578 6.358-1.637.961-3.371-1.816-5.203-2.312-1.684-.456-3.473-.813-5.202-.578-2.057.28-3.854 1.542-5.78 2.312-1.928.771-4.201.967-5.781 2.313-1.711 1.457-1.918 4.154-3.469 5.78-1.918 2.011-4.277 3.82-6.936 4.625-.923.279-1.93.08-2.89 0-1.169-.097-2.575-1.336-3.47-.578-.587.498-.042 1.542 0 2.312.097 1.742.626 3.458.579 5.202-.032 1.172-.1 2.398-.578 3.469-.503 1.126-2.915 1.813-2.312 2.89.758 1.356 3.078-.731 4.624-.578.606.06 1.156.385 1.734.578.578.193 1.351.104 1.734.578 1.097 1.357.885 3.485.579 5.203-.227 1.272-1.438 2.21-1.735 3.468-.088.375-.153.802 0 1.156 1.785 4.13 6.513 6.208 9.827 9.249 3.62 3.322 7.529 6.334 10.983 9.827 4.321 4.37 7.942 9.386 12.14 13.873 2.234 2.388 4.756 4.5 6.936 6.937 2.469 2.758 4.942 5.553 6.937 8.671.697 1.089.453 3.64 1.734 3.468.974-.13.353-1.934.578-2.89.505-2.138.706-4.417 1.735-6.359.832-1.57 2.182-2.82 3.468-4.046 1.59-1.516 3.555-2.592 5.202-4.046 1.226-1.082 2.015-2.72 3.469-3.469 1.042-.536 2.832-1.562 3.468-.578.755 1.167-1.702 2.22-2.312 3.469-.536 1.094-.796 2.304-1.156 3.468-.415 1.34-1.156 2.644-1.156 4.046 0 1.403.686 2.725 1.156 4.047.491 1.382.952 2.804 1.734 4.046 1.091 1.734 2.732 3.054 4.046 4.625.792.946 1.97 1.705 2.313 2.89.485 1.676-.084 3.529-.578 5.202-.367 1.24-.82 2.555-1.735 3.469-.914.914-2.788.634-3.468 1.734-.405.656-.482 1.711 0 2.312 1.112 1.386 3.437.962 5.203 1.156 1.34.147 2.883-.684 4.046 0 1.71 1.006 2.765 3.223 2.89 5.203.066 1.035-.673 1.972-1.156 2.89-.97 1.845-3.51 3.119-3.468 5.203.053 2.62 3.214 4.149 4.624 6.358 1.067 1.673 1.785 3.555 2.89 5.203.688 1.024 1.149 3.299 2.313 2.89.545-.191-.08-1.162 0-1.734.194-1.39.399-2.866 1.156-4.046.959-1.496 2.4-4.137 4.046-3.469 1.972.801-.082 4.336.578 6.359.349 1.068.612 2.933 1.735 2.89.43-.016.424-.754.578-1.156.784-2.052.631-4.458 1.734-6.359 1.504-2.592 3.635-5.106 6.358-6.358 2.283-1.05 5.022-.885 7.515-.578 1.21.149 3.22-.037 3.469 1.156.529 2.538-4.032 3.29-5.781 5.202-1.3 1.422-2.759 2.833-3.468 4.625-.643 1.622-.615 3.458-.578 5.202.053 2.534.962 4.988 1.156 7.515.132 1.73.574 3.566 0 5.203-.409 1.164-1.691 1.824-2.313 2.89-.522.896-1.592 1.949-1.156 2.89 1.282 2.764 6.655.606 8.671 2.89 1.95 2.21 2.671 5.877 1.734 8.671-.737 2.2-4.763 2.346-5.202 4.625-.733 3.808 3.527 6.908 5.202 10.405 4.396 9.176 9.26 18.178 12.718 27.747 4.272 11.825 6.726 24.232 9.827 36.417 2.247 8.833 4.67 17.635 6.358 26.591a219.897 219.897 0 0 1 2.89 20.81c.804 8.836.718 17.73 1.157 26.591.343 6.939-4.147 16.322 1.156 20.81 1.332 1.127 4.039.722 5.202-.578 4.113-4.594.262-12.337 0-18.498-.385-9.08-1.926-18.088-2.312-27.169-.229-5.39.269-10.797 0-16.185-.29-5.802-1.165-11.56-1.734-17.342-.588-5.972-.989-11.965-1.734-17.92-.945-7.544-2.327-15.027-3.469-22.544-.585-3.853-1.01-7.732-1.734-11.561-1.285-6.798-3.034-13.5-4.624-20.232-1.87-7.914-3.662-15.85-5.78-23.7-1.415-5.24-2.916-10.459-4.625-15.608-2.459-7.406-5.472-14.617-8.093-21.967-1.985-5.567-4.02-11.121-5.78-16.763-1.491-4.776-2.932-9.575-4.047-14.452-1.222-5.342-2.52-10.717-2.89-16.185-.313-4.618.3-9.254.578-13.874.442-7.331.34-14.755 1.734-21.966 1.225-6.343 3.93-12.309 5.78-18.498 1.206-4.032 2.02-8.188 3.469-12.14 2.255-6.153 5.04-12.12 8.093-17.92 3.463-6.579 7.492-12.852 11.56-19.075 3.482-5.325 6.889-10.74 10.984-15.608 3.333-3.962 7.425-7.222 10.983-10.983 3.376-3.568 9.917-11.925 9.917-11.925s6.54 8.669 9.916 12.238c3.558 3.76 7.65 7.02 10.983 10.983 4.095 4.868 7.502 10.283 10.983 15.607 4.07 6.224 8.098 12.497 11.562 19.076 3.052 5.8 5.837 11.766 8.092 17.92 1.448 3.951 2.263 8.107 3.469 12.14 1.85 6.188 4.555 12.154 5.78 18.497 1.394 7.212 1.293 14.635 1.735 21.966.278 4.62.89 9.256.578 13.874-.37 5.468-1.669 10.843-2.89 16.185-1.116 4.877-2.557 9.677-4.047 14.452-1.761 5.642-3.795 11.196-5.78 16.764-2.622 7.35-5.635 14.56-8.094 21.966-1.71 5.15-3.21 10.369-4.624 15.607-2.12 7.851-3.911 15.787-5.78 23.7-1.591 6.734-3.34 13.435-4.625 20.233-.724 3.829-1.149 7.708-1.734 11.561-1.142 7.517-2.524 15-3.469 22.544-.745 5.955-1.146 11.948-1.734 17.92-.569 5.782-1.445 11.54-1.734 17.342-.269 5.389.229 10.795 0 16.186-.386 9.08-1.926 18.088-2.312 27.168-.262 6.16-4.112 13.904 0 18.498 1.163 1.3 3.87 1.706 5.202.578 5.304-4.488.813-13.87 1.156-20.81.44-8.86.353-17.755 1.157-26.59a219.897 219.897 0 0 1 2.89-20.81c1.688-8.956 4.111-17.76 6.359-26.591 3.1-12.186 5.555-24.593 9.827-36.418 3.456-9.569 8.322-18.571 12.717-27.747 1.675-3.497 5.936-6.597 5.202-10.405-.438-2.278-4.465-2.424-5.202-4.624-.937-2.795-.217-6.462 1.734-8.671 2.016-2.284 7.389-.127 8.67-2.89.437-.942-.633-1.994-1.155-2.89-.621-1.067-1.904-1.727-2.312-2.891-.574-1.637-.133-3.474 0-5.203.193-2.527 1.102-4.98 1.156-7.514.036-1.745.064-3.58-.578-5.203-.71-1.791-2.168-3.202-3.469-4.624-1.75-1.914-6.31-2.665-5.78-5.203.248-1.193 2.258-1.007 3.468-1.156 2.493-.307 5.232-.472 7.515.578 2.723 1.252 4.854 3.766 6.358 6.359 1.103 1.9.95 4.306 1.735 6.358.153.403.147 1.14.578 1.156 1.122.043 1.385-1.822 1.734-2.89.66-2.023-1.394-5.558.578-6.359 1.646-.668 3.087 1.973 4.046 3.469.758 1.18.962 2.657 1.156 4.046.08.573-.545 1.543 0 1.734 1.165.409 1.625-1.865 2.313-2.89 1.105-1.647 1.823-3.53 2.89-5.202 1.41-2.21 4.571-3.739 4.624-6.36.043-2.083-2.498-3.357-3.468-5.202-.483-.918-1.222-1.854-1.156-2.89.125-1.98 1.18-4.196 2.89-5.202 1.163-.684 2.706.147 4.047 0 1.766-.194 4.09.23 5.202-1.157.482-.6.405-1.656 0-2.312-.68-1.1-2.554-.82-3.468-1.734-.914-.914-1.368-2.229-1.734-3.468-.495-1.674-1.064-3.527-.578-5.203.343-1.185 1.52-1.944 2.312-2.89 1.314-1.571 2.955-2.891 4.046-4.625.782-1.241 1.243-2.663 1.734-4.046.47-1.322 1.157-2.644 1.157-4.046 0-1.403-.742-2.707-1.157-4.047-.36-1.164-.62-2.373-1.156-3.468-.61-1.248-3.066-2.302-2.312-3.469.636-.984 2.426.042 3.468.578 1.454.749 2.243 2.387 3.469 3.469 1.647 1.454 3.612 2.53 5.202 4.046 1.286 1.226 2.637 2.477 3.469 4.047 1.029 1.94 1.23 4.22 1.734 6.358.226.957-.396 2.76.578 2.89 1.281.172 1.037-2.379 1.734-3.468 1.995-3.118 4.468-5.913 6.937-8.67 2.18-2.437 4.702-4.55 6.936-6.937 4.199-4.488 7.819-9.505 12.14-13.874 3.454-3.493 7.363-6.505 10.983-9.827 3.314-3.041 8.043-5.12 9.827-9.249.153-.353.088-.78 0-1.156-.297-1.258-1.507-2.196-1.734-3.468-.307-1.718-.52-3.846.578-5.203.383-.474 1.156-.385 1.734-.578.578-.192 1.128-.518 1.734-.578 1.546-.153 3.866 1.934 4.625.578.602-1.076-1.81-1.763-2.313-2.89-.478-1.07-.546-2.297-.578-3.468-.047-1.745.482-3.46.578-5.203.043-.77.588-1.814 0-2.312-.894-.758-2.3.481-3.468.578-.96.08-1.968.28-2.89 0-2.66-.805-5.02-2.613-6.937-4.625-1.55-1.626-1.758-4.323-3.468-5.78-1.58-1.346-3.854-1.542-5.781-2.312-1.927-.771-3.724-2.033-5.78-2.313-1.73-.234-3.519.122-5.203.578-1.832.496-3.566 3.274-5.203 2.313-1.835-1.078-.925-4.26-.578-6.359.31-1.872 1.238-3.638 2.313-5.203.77-1.123 1.74-2.158 2.89-2.89 1.902-1.211 4.137-1.92 6.358-2.312 2.088-.368 4.24 0 6.36 0 1.54 0 3.2-.59 4.624 0 1.762.73 2.284 3.316 4.046 4.046.356.148.884.273 1.156 0 .818-.817 0-2.312 0-3.468 0-1.734-.818-3.674 0-5.203.328-.612 1.197-.715 1.734-1.156 1.054-.863 1.716-2.199 2.89-2.89 1.21-.711 2.838-.445 4.047-1.156.235-.138.32-.664.578-.578 1.293.43.757 2.696.578 4.046-.192 1.455-1.931 2.593-1.734 4.047.166 1.222 1.28 2.213 2.312 2.89 1.836 1.206 4.577.45 6.359 1.734 2.818 2.031 4.254 5.55 5.78 8.671.804 1.642 1.133 3.476 1.735 5.203.742 2.13.11 5.87 2.312 6.358 2.128.472 3.667-2.666 4.624-4.624.683-1.396.482-3.074.578-4.625.168-2.692 0-5.395 0-8.093 0-2.12-.531-4.306 0-6.358.498-1.92 1.883-3.494 2.89-5.203.924-1.565 1.463-3.5 2.891-4.624.957-.754 2.5-.417 3.468-1.156 1.657-1.265 2.594-3.311 3.469-5.203.588-1.273.961-2.657 1.156-4.046.294-2.1-1.601-4.97 0-6.359 1.03-.893 2.854-.081 4.046.578 2.872 1.588 4.751 4.654 6.359 7.515.597 1.062.915 2.274 1.156 3.468.497 2.463-1.81 6.734.578 7.515 1.689.552 2.312-2.698 3.468-4.046 1.156-1.35 2.122-2.888 3.469-4.047 1.378-1.185 3.013-2.048 4.624-2.89 1.3-.68 2.715-1.117 4.047-1.734 1.172-.544 2.219-1.403 3.468-1.734 3.357-.892 7.496-2.477 10.405-.578 1.379.9 1.662 2.98 1.734 4.624.158 3.596-1.273 7.19-2.89 10.405-.987 1.963-2.593 3.556-4.047 5.203a46.092 46.092 0 0 1-4.046 4.046c-1.647 1.454-6.164 2.071-5.202 4.046 1.043 2.143 4.557-1.87 6.936-1.734 3.288.187 6.231 2.152 9.25 3.469 1.974.86 4.165 1.464 5.78 2.89 1.041.92 2.968 2.243 2.312 3.468-.545 1.02-2.32-.13-3.468 0-2.555.291-5.115.812-7.515 1.734-1.852.712-3.598 1.724-5.203 2.89-3.197 2.327-5.272 6.073-8.67 8.094-2.62 1.556-5.674 2.346-8.671 2.89-5.123.929-10.455 1.317-15.608.578-.603-.087-1.156-.77-1.734-.578-2.233.738-4.907 3.591-4.047 5.78 1.01 2.568 5.406 1.11 8.093 1.735 2.322.538 4.757.77 6.937 1.734 1.906.843 3.468 2.312 5.202 3.468 1.735 1.156 3.591 2.147 5.203 3.468 1.686 1.383 2.61 3.79 4.624 4.625 1.425.59 3.085.077 4.625 0 1.934-.097 4.717-2.196 5.78-.578 1.09 1.657-1.586 3.707-2.89 5.202-1.266 1.453-2.796 2.86-4.624 3.469-.914.304-1.929-.06-2.89 0-1.551.096-4.178-.91-4.625.578-.512 1.701 3.225 1.893 4.046 3.468.896 1.717.694 3.848.578 5.78-.105 1.774-.631 3.506-1.156 5.203-.612 1.983-.855 4.303-2.312 5.78-1.758 1.785-4.559 2.103-6.937 2.891-2.262.75-5.211 3.38-6.936 1.734-.711-.678.44-1.917.578-2.89.324-2.297.71-4.62.578-6.937-.112-1.961-.184-4.073-1.156-5.78-1.283-2.253-3.793-3.539-5.78-5.203-1.686-1.41-3.408-2.78-5.203-4.046-2.054-1.447-4.986-1.943-6.359-4.047-1.385-2.122 1.095-6.35-1.156-7.514-2.296-1.188-4.394 3-6.937 3.468-1.904.35-3.846-.482-5.78-.578-.385-.02-.859-.244-1.157 0-1.52 1.246-.089 4.13-1.156 5.78-.9 1.392-2.418 2.582-4.046 2.89-1.561.297-3.086-1.553-4.625-1.155-3.827.99-5.852 5.32-8.67 8.093a425.257 425.257 0 0 0-15.608 16.185c-2.58 2.823-4.997 5.792-7.515 8.671-2.876 3.289-5.842 6.498-8.67 9.827-1.774 2.087-3.54 4.184-5.203 6.359-1.007 1.316-3.81 2.668-2.89 4.046 1.427 2.138 4.974-1.337 7.514-1.734 2.293-.358 4.659-1.017 6.937-.578 4.23.815 7.784 3.707 11.561 5.78 1.97 1.082 6.47 1.33 5.78 3.469-.711 2.208-4.618-.482-6.936-.578-2.888-.12-5.858-.664-8.67 0-2.098.495-4.166 1.464-5.781 2.89-2.084 1.84-2.682 4.95-4.625 6.937-1.644 1.682-3.575 3.228-5.78 4.046-1.816.674-3.845.589-5.781.578-1.745-.01-3.903-1.741-5.203-.578-.718.643-.068 1.93 0 2.89.097 1.36 1.246 2.86.578 4.047-.719 1.28-2.638 1.321-4.046 1.734-1.125.33-2.3.481-3.468.578-1.537.127-3.374-.901-4.625 0-.988.713-.574 2.398-1.156 3.468-2.358 4.336-11.387 7.114-9.249 11.562.751 1.563 3.47.057 5.203 0 2.895-.097 7.805-3.343 8.67-.578.672 2.144-5.664 1.224-5.78 3.468-.05.962 1.39 1.458 2.312 1.734 2.96.885 6.186-.977 9.25-.578 2.416.315 4.801 1.136 6.936 2.312 2.398 1.322 7.37 2.658 6.358 5.203-.999 2.513-5.389-.64-8.092-.578-3.298.075-6.695.124-9.827 1.156-4.427 1.458-7.968 4.86-12.14 6.937-3.94 1.962-9.158 1.963-12.139 5.202-.412.449-.871 1.2-.578 1.734.382.697 1.764.003 2.312.578 1.356 1.423 1.81 3.928 1.156 5.781-.5 1.42-2.175 2.12-3.468 2.89-1.782 1.063-3.717 2.09-5.78 2.312-1.166.126-2.424-1.11-3.469-.578-3.84 1.956-4.093 7.597-5.78 11.562-2.482 5.832-3.969 12.05-6.36 17.92-1.04 2.555-2.538 4.917-3.467 7.514-1.544 4.312-2.107 8.923-3.469 13.296-1.341 4.306-3.344 8.392-4.624 12.717-1.46 4.93-2.316 10.019-3.469 15.03-2.126 9.247-4.772 18.391-6.358 27.746-1.167 6.881-1.722 13.856-2.312 20.81-.278 3.27-.482 6.547-.579 9.827-.113 3.852.366 7.725 0 11.562-.483 5.078-5.562 10.683-2.89 15.03 1.47 2.389 5.853 4 8.093 2.311 2.154-1.624-.096-5.397 0-8.093.193-5.405.894-10.783 1.156-16.185.364-7.509-.181-15.066.578-22.544.554-5.453 1.85-10.805 2.89-16.186.897-4.638 1.637-9.32 2.89-13.874 1.57-5.698 3.766-11.207 5.781-16.763 1.477-4.07 2.968-8.139 4.625-12.14 2.343-5.657 4.445-11.465 7.515-16.763 2.627-4.536 6.134-8.501 9.249-12.717 2.289-3.1 4.456-6.3 6.936-9.25a121.882 121.882 0 0 1 9.25-9.826c4.95-4.712 10.115-9.228 15.607-13.296 4.596-3.404 9.29-6.784 14.451-9.249 5.499-2.626 11.41-4.39 17.342-5.78 8.145-1.91 16.493-3.296 24.857-3.469 7.935-.164 15.878.96 23.7 2.313 6.263 1.082 12.795 1.818 18.498 4.624 5.292 2.604 9.083 7.542 13.873 10.983 3.733 2.682 8.177 4.405 11.561 7.515 4.854 4.459 8.86 9.89 12.14 15.608 1.549 2.7 2.63 5.673 3.468 8.67 1.263 4.515 1.732 9.222 2.312 13.874.575 4.605 1.639 9.258 1.156 13.873-.627 6.003-2.764 11.821-5.202 17.342-1.816 4.111-4.652 7.69-6.937 11.561-3.511 5.948-6.138 12.489-10.405 17.92-4.125 5.25-9.023 9.984-14.451 13.873-4.764 3.413-10.386 5.434-15.608 8.093-7.295 3.715-14.476 7.68-21.966 10.983-4.911 2.167-10.119 3.615-15.03 5.78-4.73 2.087-9.295 4.535-13.873 6.938-3.895 2.043-7.849 4-11.561 6.358-2.213 1.405-4.601 2.68-6.359 4.625-1.795 1.985-3.51 4.314-4.046 6.936-.623 3.044-.008 6.369 1.156 9.25 1.082 2.68 2.733 5.435 5.202 6.936 1.002.609 2.37.986 3.469.578 1.41-.524 1.815-2.415 2.89-3.468.881-.864 1.66-2.217 2.89-2.312 1.549-.121 2.936 1.225 4.047 2.312.802.786.61 2.863 1.734 2.89 1.389.033 1.357-2.459 2.312-3.468 1.324-1.4 3.09-2.303 4.624-3.469 2.517-1.911 5.222-3.605 7.515-5.78 1.29-1.223 2.573-2.513 3.469-4.047 1.137-1.947 2.348-4.103 2.312-6.358-.033-2.075-1.093-4.102-2.312-5.78-.885-1.218-3.981-1.476-3.469-2.891.328-.906 1.934-.118 2.89 0 2.366.291 4.919.467 6.937 1.734 1.275.8 2.096 2.19 2.89 3.468 1.003 1.612 2.408 3.308 2.313 5.203-.079 1.551-1.323 2.849-2.312 4.046-1.132 1.37-4.922 1.923-4.047 3.469.9 1.59 3.452-1.21 5.203-1.734 2.865-.86 6.298-4.135 8.67-2.313 1.07.822.103 2.702 0 4.047-.193 2.527.049 5.285-1.156 7.514-1.232 2.281-3.841 3.482-5.78 5.203-1.532 1.36-5.105 2.055-4.625 4.046.187.773 1.52.52 2.313.578 1.931.141 3.849-.718 5.78-.578 2.377.173 4.924.458 6.937 1.735 2.313 1.466 3.225 4.463 5.202 6.358 2.087 2 4.578 3.533 6.937 5.203 3.403 2.407 6.465 5.576 10.405 6.936 2.375.82 5.004.482 7.515.579 1.733.066 4.539-1.603 5.202 0 1.148 2.769-3.876 4.678-6.358 6.358-1.215.823-2.636 1.33-4.047 1.734-2.436.698-6.35-1.095-7.514 1.156-.594 1.149.864 2.512 1.734 3.469 1.223 1.345 3.525 1.442 4.624 2.89 2.064 2.72 2.79 6.414 2.89 9.827.077 2.57-1.358 4.972-1.734 7.515-.423 2.865 1.902 7.174-.578 8.67-1.624.981-3.54-1.396-5.202-2.311-2.435-1.34-4.788-2.863-6.937-4.625-2.107-1.728-4.383-3.441-5.78-5.78-1.032-1.728-1.353-3.806-1.735-5.781-.404-2.09 1.357-5.472-.578-6.359-1.506-.69-2.781 1.82-4.046 2.89-1.871 1.586-2.937 4.265-5.203 5.203-.356.148-.883.273-1.156 0-.545-.545-.123-1.551 0-2.312.39-2.406 1.922-4.531 2.312-6.937.278-1.712.794-3.66 0-5.202-.758-1.474-2.85-1.743-4.046-2.89-1.585-1.522-2.372-3.78-4.046-5.203-1.84-1.564-4.02-2.872-6.359-3.469-1.867-.476-5.185-1.832-5.78 0-.811 2.493 4.81 2.51 6.358 4.625 1.8 2.458 2.402 5.663 2.89 8.67.402 2.473.474 5.056 0 7.516-.392 2.037-1.004 4.169-2.312 5.78-1.313 1.619-3.422 4.552-5.202 3.468-1.49-.907.884-3.484.578-5.202-.227-1.273-.452-3.304-1.735-3.468-2.031-.261-2.812 2.99-4.046 4.624-2.35 3.114-3.404 7.28-6.359 9.827-1.763 1.52-4.083 2.397-6.358 2.89-5.273 1.143-14.435 5.104-16.186 0-.713-2.078 3.514-2.641 5.203-4.046 1.783-1.484 4-2.64 5.202-4.625 1.235-2.038 1.64-4.555 1.734-6.936.094-2.342-.179-4.806-1.156-6.937-.627-1.368-2.611-1.99-2.89-3.468-.339-1.797.97-3.542 1.734-5.203.47-1.02 1.489-1.794 1.734-2.89.424-1.89 1.173-4.953-.578-5.78-1.256-.595-2.116 1.992-3.468 2.312-1.512.356-3.332.283-4.625-.579-1.292-.861-2.063-2.513-2.312-4.046-.157-.97 1.003-2.004.578-2.89-2.346-4.896-10.116-4.247-14.451-7.515-4.027-3.036-7.216-7.076-10.405-10.983-1.488-1.822-3.09-3.632-4.047-5.78-1.045-2.35-1.388-4.968-1.734-7.515-.597-4.396-1.293-8.918-.578-13.296.433-2.649 1.807-5.059 2.89-7.515 1.218-2.76 2.241-5.676 4.047-8.092 2.366-3.167 5.827-5.346 8.67-8.093 3.136-3.03 5.713-6.7 9.25-9.25 2.796-2.015 6.22-2.978 9.249-4.624 3.339-1.814 6.82-3.455 9.827-5.78 3.017-2.335 5.395-5.395 8.092-8.093 2.313-2.312 4.89-4.386 6.937-6.937 1.572-1.96 3.344-3.946 4.046-6.358 1.024-3.515.842-7.42 0-10.984-.791-3.354-2.377-6.634-4.624-9.248-2.613-3.041-6.157-5.323-9.827-6.937-4.151-1.826-8.767-2.643-13.295-2.89-7.352-.402-14.94.113-21.967 2.312-6.501 2.034-12.47 5.74-17.92 9.827-5.013 3.76-9.414 8.373-13.295 13.295-4.337 5.502-7.788 11.685-10.983 17.92-2.953 5.765-5.381 11.804-7.515 17.92-2.11 6.048-3.807 12.246-5.202 18.498-1.022 4.575-1.824 9.21-2.312 13.873-.462 4.412-4.072 10.561-.578 13.295 2.688 2.105 6.422-3.152 9.827-2.89 3.61.278 6.865 2.543 9.827 4.625 4.904 3.447 10.629 7.097 12.717 12.717 1.817 4.89.909 10.817-1.156 15.607-2.376 5.512-7.152 9.958-12.14 13.296-1.874 1.254-4.146 1.873-6.358 2.312-4.351.864-8.86.64-13.296.578-5.408-.075-13.624-5.92-16.185-1.156-1.496 2.784 4.763 4.523 5.78 7.515.745 2.189-.067 4.625 0 6.936.097 3.28-.766 6.834.578 9.827 1.452 3.232 4.868 5.161 7.515 7.515 3.486 3.1 7.072 6.129 10.983 8.671 6.938 4.51 14.046 9.169 21.967 11.561 7.231 2.185 15.038 1.459 22.544 2.313 6.174.702 12.287 2.115 18.498 2.312 9.454.299 19.016-3.414 28.325-1.734 3.735.674 7.276 2.475 10.405 4.624 4.043 2.777 7.732 6.292 10.405 10.405 1.462 2.25 1.957 4.999 2.89 7.515.996 2.686 2.75 5.232 2.89 8.093.156 3.174-1.006 6.352-2.312 9.249a31.98 31.98 0 0 1-6.359 9.249c-2.817 2.852-6.32 4.99-9.827 6.936-3.473 1.928-7.069 3.947-10.983 4.625-3.422.593-7.1.493-10.405-.578-3.05-.989-5.874-2.887-8.093-5.203-1.851-1.933-5.165-4.505-4.046-6.937.9-1.956 4.256-.685 6.359-1.156 2.919-.653 5.873-1.252 8.67-2.312 2.015-.763 4.067-1.585 5.781-2.89 2.063-1.57 3.947-3.513 5.203-5.78.68-1.228 2.296-3.23 1.156-4.047-2.477-1.775-4.656 4.15-7.515 5.202-1.817.67-3.89 1.002-5.78.578-1.097-.245-2.717-.624-2.89-1.734-.319-2.023 3.252-2.736 4.046-4.624.973-2.316.958-5.032.578-7.515-.314-2.051-.907-4.253-2.313-5.78-2.042-2.22-5.157-3.354-8.092-4.047-4.501-1.062-9.26.306-13.874 0-2.91-.193-7.814-3.943-8.67-1.156-1.013 3.295 6.394 2.692 9.248 4.624 1.922 1.301 3.664 2.888 5.203 4.625 2.02 2.28 3.803 4.808 5.202 7.515 1.036 2.003 3.922 4.778 2.313 6.358-1.916 1.88-5.402-4.544-7.515-2.89-2.447 1.915 1.74 6.197 1.156 9.249-.827 4.32-3.326 8.376-6.359 11.561-2.028 2.13-4.944 3.195-7.515 4.625-1.506.837-3.158 3.218-4.624 2.312-3.278-2.026.436-7.732 0-11.561-.29-2.555-.948-5.068-1.734-7.515-.766-2.385-.408-7.275-2.89-6.937-1.54.21-.087 3.15-.579 4.625-.982 2.947-2.319 6.01-4.624 8.092-1.408 1.273-3.642 3.393-5.203 2.313-2.697-1.868.608-6.546.579-9.827-.023-2.513.241-5.14-.579-7.515-1.586-4.597-4.928-8.446-8.092-12.14-2.041-2.381-4.44-4.459-6.937-6.358-2.894-2.201-5.993-7.397-9.249-5.78-1.906.946-.919 4.257-.578 6.358.539 3.322 2.503 6.259 4.046 9.249 1.03 1.997 4.576 3.825 3.469 5.78-.95 1.677-3.942.575-5.78 0-2.909-.908-5.229-3.189-7.516-5.202-1.946-1.713-2.64-6.176-5.202-5.78-2.301.355-.696 5.581-2.89 6.358-1.219.431-2.604-.773-3.469-1.734-1.101-1.224-.675-3.364-1.734-4.625-2.445-2.909-7.49-2.784-9.827-5.78-2.1-2.692-2.038-6.52-2.89-9.827-.444-1.72-.063-3.802-1.156-5.203-1.591-2.037-4.39-3.032-6.937-3.468-1.531-.262-3.633-.618-4.625.578-1.97 2.378-.29 6.284.578 9.249.558 1.904 1.931 3.466 2.89 5.203 2.128 3.849 3.496 8.222 6.36 11.56 2.057 2.4 4.91 3.991 7.514 5.781 3.35 2.303 6.85 4.389 10.405 6.359 2.638 1.462 5.516 2.48 8.093 4.046 4.479 2.723 9.686 4.973 12.717 9.25 1.164 1.64 1.4 3.796 1.735 5.78.739 4.374 4.3 10.882.578 13.295-1.446.938-3.097-1.514-4.625-2.312-2.14-1.118-4.174-2.44-6.359-3.468-2.816-1.326-6.022-1.832-8.67-3.469-1.974-1.22-3.792-2.783-5.203-4.624-1.572-2.052-1.005-7.72-3.468-6.937-2.415.769.743 5.014 1.156 7.515.542 3.282 2.417 6.571 1.734 9.827-.285 1.36-.927 3.58-2.312 3.468-2.32-.187-1.422-4.551-2.89-6.358-2.26-2.782-6.123-3.838-8.671-6.359-2.74-2.71-4.67-6.133-6.937-9.249-2.36-3.242-5.061-6.283-6.937-9.827-1.54-2.91-2.68-6.052-3.468-9.249-1.487-6.033 3.901-18.54-2.312-18.498-3.49.024-1.122 6.916-1.157 10.405-.042 4.257.2 8.57 1.157 12.718 1.342 5.823 4.12 11.221 6.358 16.763 2.198 5.443 4.352 10.916 6.937 16.186 2.62 5.343 4.205 11.674 8.67 15.607.78.686 3.182.16 2.891 1.157-1.156 3.953-8.255-.942-12.14-2.313-3.088-1.09-5.492-3.83-8.67-4.624-1.682-.42-4.306-1.485-5.203 0-2.138 3.542 4.789 6.967 5.781 10.983 1.063 4.302.338 8.876 0 13.295-.386 5.054-.372 10.347-2.312 15.03-2.743 6.623-6.925 13.12-12.717 17.342-1.478 1.076-5.203 1.734-5.203 1.734" transform="matrix(.35797 0 0 .3688 146.617 136)"/></g></g></svg>